<svg width="200" height="107" viewBox="0 0 200 107" fill="none" xmlns="http://www.w3.org/2000/svg">
<path d="M30.5799 2.68776C33.2408 4.15257 83.4062 31.7825 83.4062 31.7825C83.4062 31.7825 94.9548 16.328 99.2636 10.3209C101.344 13.4656 113.473 30.2774 115.243 30.2774C115.688 30.2774 157.912 20.8031 161.126 20.064C160.721 21.2466 153.535 43.8102 153.535 43.8102L193.503 44.1058L154.859 58.2299C154.859 58.2299 193.341 87.6203 197.285 90.644C196.447 90.4424 137.3 76.4796 137.3 76.4796C137.3 76.4796 146.228 99.8495 147.16 102.309C145.742 101.704 108.935 85.8733 108.935 85.8733C108.935 85.8733 100.236 99.6882 99.0205 101.61C96.8863 99.4598 77.7467 79.7721 77.7467 79.7721L14.9116 104.217C19.1393 99.2044 41.4801 72.6899 41.4801 72.6899C41.4801 72.6899 12.2372 66.9113 11.94 66.8575C17.2348 65.003 37.9277 57.1548 37.9277 57.1548C37.9277 57.1548 9.64383 44.8449 2.70117 41.8212C5.2135 41.7943 45.4512 40.7327 45.4512 40.7327C45.4512 40.7327 31.4848 5.02609 30.5664 2.67432" fill="white"/>
<path d="M67.5916 61.5408V51.7168H63.9276V50.1008H73.1436V51.7168H69.4956V61.5408H67.5916ZM75.275 50.1008H77.179V61.5408H75.275V50.1008ZM87.9954 54.0368C87.7874 52.8848 87.0354 51.4928 84.9234 51.4928C82.4594 51.4928 81.4834 53.5568 81.4834 55.8128C81.4834 58.0848 82.4594 60.1488 84.9234 60.1488C87.0514 60.1488 87.8674 58.7568 87.9954 57.3648H89.8994C89.6434 59.9408 87.8834 61.7808 84.9714 61.7808C81.6754 61.7808 79.5954 59.2688 79.5954 55.8128C79.5954 52.3728 81.6754 49.8608 84.9714 49.8608C87.8674 49.8608 89.6274 51.7008 89.8994 54.0368H87.9954ZM92.1086 50.1008H94.0126V55.7488L99.1966 50.1008H101.469L97.0206 54.9488L101.741 61.5408H99.5166L95.7726 56.2768L94.0126 58.1648V61.5408H92.1086V50.1008ZM105.391 54.8208H110.975V56.4528H105.391V59.9248H111.919V61.5408H103.487V50.1008H111.759V51.7168H105.391V54.8208ZM117.279 61.5408V51.7168H113.615V50.1008H122.831V51.7168H119.183V61.5408H117.279ZM129.063 54.7248C131.511 55.3488 133.367 55.8768 133.367 58.4368C133.367 60.2608 131.991 61.7808 129.111 61.7808C126.311 61.7808 124.183 60.3248 124.071 57.7328H125.975C126.071 59.1888 127.063 60.1488 129.111 60.1488C130.807 60.1488 131.463 59.3968 131.463 58.5168C131.463 57.1568 130.487 56.9008 128.231 56.3408C126.439 55.8928 124.503 55.2048 124.503 53.0288C124.503 50.9968 126.071 49.8608 128.567 49.8608C131.079 49.8608 132.903 51.1728 133.063 53.5248H131.159C130.983 52.1968 130.151 51.4928 128.567 51.4928C127.207 51.4928 126.391 52.0048 126.391 52.8528C126.391 54.1008 127.463 54.3248 129.063 54.7248Z" fill="black"/>
</svg>
